<?xml version="1.0" encoding="utf-8"?>
<!-- Generator: Adobe Illustrator 28.3.0, SVG Export Plug-In . SVG Version: 6.00 Build 0)  -->
<svg version="1.1" id="a" xmlns="http://www.w3.org/2000/svg" xmlns:xlink="http://www.w3.org/1999/xlink" x="0px" y="0px"
	 viewBox="0 0 974 244.9" style="enable-background:new 0 0 974 244.9;" xml:space="preserve">
<style type="text/css">
	.st0{fill:#FE0000;}
	.st1{fill-rule:evenodd;clip-rule:evenodd;fill:#FFFFFF;}
</style>
<rect id="b" class="st0" width="974" height="244.9"/>
<g id="c">
	<path id="d" class="st1" d="M239.7,88.6c11.9-42.3-22.6-55.1-58.8-55.1s-75.6,11.4-86.3,53c-4,19,1.3,35,17.4,42.8
		c34.6,16.8,71.6,11.7,66.6,35.5c-2.5,11.7-18,17.5-29.2,17.5c-17.5,0-27.7-9-24-25.5H76.8c-9.4,47.6,24.1,59.6,64.9,59.6
		s80.7-17.5,88.6-54.5c10-47.4-32.1-50.3-59.9-57.8c-12.1-3.4-26.8-7.5-24.1-20.4c1.9-8.7,13.1-16,24.3-16c8.3,0,14.2,1.9,17.5,5.6
		c3.6,3.6,4.7,8.7,3,15.5L239.7,88.6L239.7,88.6z M380.2,212.5l7.2-34h-85l7.9-37.2h78.2l7.2-34h-78.2l7.7-36.2h85l7.2-34H283.9
		l-37.3,175.4L380.2,212.5L380.2,212.5z M407.7,212.5h43.7L480,78.2h0.5l31,134.4h67.3L616,37.1h-43.7l-27.7,130.2l-0.6,0.5
		L513,37.1h-68L407.7,212.5L407.7,212.5z M645.3,212.5l18.7-34.3h71.2l4.4,34.3h54.9l-32-175.4h-59.3L596.7,212.5H645.3z
		 M683.6,144.3l39.3-72.9h0.7l6.8,72.9H683.6z M861.5,212.5l37.3-175.4h-48.6l-37.3,175.4H861.5z"/>
</g>
<path id="e" class="st1" d="M0,122.2h51v5.2H0V122.2z"/>
<path id="f" class="st1" d="M0,80h51v5.2H0V80z"/>
<path id="g" class="st1" d="M0,37.8h51V43H0V37.8z"/>
<path id="h" class="st1" d="M0,164.5h51v5.2H0V164.5z"/>
<path id="i" class="st1" d="M0,206.7h51v5.2H0V206.7z"/>
<path id="j" class="st1" d="M923,122.2h51v5.2h-51V122.2z"/>
<path id="k" class="st1" d="M923,80h51v5.2h-51V80z"/>
<path id="l" class="st1" d="M923,37.8h51V43h-51V37.8z"/>
<path id="m" class="st1" d="M923,164.5h51v5.2h-51V164.5z"/>
<path id="n" class="st1" d="M923,206.7h51v5.2h-51V206.7z"/>
</svg>
